<?xml version="1.0" encoding="UTF-8"?>
<svg width="366px" height="366px" viewBox="0 0 366 366" version="1.1" xmlns="http://www.w3.org/2000/svg" xmlns:xlink="http://www.w3.org/1999/xlink">
    <title>developer-code-laptop@1.5x</title>
    <defs>
        <polygon id="path-1" points="0 0 366 0 366 365.9817 0 365.9817"></polygon>
    </defs>
    <g id="Page-1" stroke="none" stroke-width="1" fill="none" fill-rule="evenodd">
        <g id="03" transform="translate(-378.000000, -465.000000)">
            <g id="developer-code-laptop" transform="translate(378.000000, 465.000000)">
                <g id="Group-4">
                    <mask id="mask-2" fill="white">
                        <use xlink:href="#path-1"></use>
                    </mask>
                    <g id="Clip-2"></g>
                    <polyline id="Fill-1" fill="#E3E3E3" mask="url(#mask-2)" points="273.21656 281.929495 273.21656 295.3803 282.52089 287.107785 282.521195 287.107785 282.52638 287.102905 286.962605 283.158645 282.599885 282.76855 276.22813 281.515305 275.48881 282.132625 273.21656 281.929495"></polyline>
                    <path d="M228.445,245.654625 L252.15387,236.180715 C250.061265,210.360635 224.54954,179.91401 183.800015,179.91401 C143.047745,179.91401 117.385655,210.360635 115.292745,236.180715 L138.775,245.654625 L138.775,366 L228.445,366 L228.445,245.654625" id="Fill-3" fill="#5454B5" mask="url(#mask-2)"></path>
                </g>
                <path d="M248.735725,123.317729 C245.679522,103.761987 235.838434,51.5833296 187.103484,48.1727617 L187.103484,48.0572572 C187.103484,48.0466465 186.907625,48.0320948 186.630541,48.0245157 C185.536916,47.9945027 184.640377,47.995109 183.582308,48.009964 C182.523319,47.995109 181.353067,47.9945027 180.259136,48.0245157 C179.982052,48.0320948 179.440757,48.0466465 179.440757,48.0572572 L179.440757,48.1673048 C130.705807,51.5129962 121.249081,103.748345 118.190427,123.317729 C115.373608,145.030465 118.439619,172.335623 118.439619,172.335623 C203.020809,182.830471 248.782927,172.335623 248.782927,172.335623 C248.782927,172.335623 251.552543,145.029252 248.735725,123.317729" id="Fill-5" fill="#373737"></path>
                <path d="M232,131 C232,131 225.271768,172.745192 184.619821,171.989872 C155.144105,172 146,151.499863 146,151.499863 L232,131" id="Fill-6" fill="#1E1E1E"></path>
                <path d="M143.228571,350 C141.518265,350 139.765714,349.800184 138,349.343886 L138,337 L228,337 L228,341.697178 L164.632653,340.802478 C164.632653,340.802478 154.862143,350 143.228571,350" id="Fill-7" fill="#F0F0F0"></path>
                <path d="M199.997975,182.173028 C197.690656,181.626074 196.375289,181.450963 193.531796,181.052929 L192.04341,165.596899 L175.56387,165 L174.936297,180.871423 C171.551128,181.20794 169.729545,181.49634 167.029419,182.150188 C166.961557,182.970315 167.02789,183.674107 167.060905,184.519207 C167.465327,194.613195 175.162504,202.43105 184.252388,201.981548 C193.342882,201.531437 200.385279,192.983905 199.981468,182.89083 C199.975049,182.724551 200.008368,182.338089 199.997975,182.173028" id="Fill-8" fill="#F2C5AD"></path>
                <path d="M175.924055,172 L175.924055,172 L176.036295,168 C176.050325,168.002534 176.06222,168.004435 176.075945,168.006652 L175.92436,172" id="Fill-9" fill="#1E1E1E"></path>
                <path d="M191.999695,172.000152 L191.999695,172.000152 L192.000305,171.999848 L192.000305,172.000152 C192,172.000152 191.999695,172.000152 191.999695,172.000152" id="Fill-10" fill="#343434"></path>
                <path d="M192.195048,172 L191.804342,168 L191.804648,168 L192.195658,172 C192.195658,171.9997 192.195048,172 192.195048,172" id="Fill-11" fill="#1E1E1E"></path>
                <path d="M185.490875,172 C185.119487,172 184.745262,171.996429 184.3682,171.989288 C184.361264,171.989288 184.354013,171.989288 184.347077,171.989288 C181.367464,171.989288 178.588678,171.782849 176,171.410218 L176.157004,167.318424 C178.711949,167.739418 181.330893,167.957868 183.998073,167.957868 C184.273304,167.957868 184.550426,167.955596 184.826602,167.951052 C187.824815,167.900091 190.753985,167.5755 193.59614,167 L194,171.333615 C191.341332,171.766294 188.50832,171.999675 185.490875,172" id="Fill-12" fill="#DCB49E"></path>
                <path d="M231.993377,120.595425 C232.428603,146.891998 211.359839,168.560308 184.934484,168.993418 C158.50913,169.426225 136.73465,148.458678 136.300646,122.161801 L136.006623,104.40487 C135.571396,78.1086018 156.640772,56.4405958 183.065516,56.0065726 C209.491481,55.5740702 231.266572,76.5410087 231.700882,102.837885 L231.993377,120.595425" id="Fill-13" fill="#F2C5AD"></path>
                <path d="M148.998262,121.29457 C149.112218,128.196807 143.608998,133.884897 136.70736,133.998296 C129.805425,134.111102 124.116245,128.607658 124.001694,121.704531 C123.889225,114.801403 129.391553,109.115391 136.295571,109.001695 C143.197208,108.889186 148.884901,114.392333 148.998262,121.29457" id="Fill-14" fill="#F4C7AE"></path>
                <path d="M233,137 L231.056932,134.096731 C231.083389,133.9759 231.107837,133.863058 231.12994,133.757539 L233,137 M230.332887,133.014912 L230,132.517609 C230.039518,132.345516 230.078366,132.172425 230.116544,132 L230.657736,132.938686 L230.332887,133.014912" id="Fill-15" fill="#363636"></path>
                <path d="M231.908403,133 L231,132.065824 L231.407563,132 L232,132.7071 C231.972269,132.798218 231.941597,132.89566 231.908403,133" id="Fill-16" fill="#1F1F1F"></path>
                <path d="M228.894033,132 L207.718068,100.76833 L154,107.024882 C154.381845,105.784985 154.770389,104.57855 155.16746,103.394821 L208.327376,93 L210.560287,99.9715096 L229,131.535412 C228.965287,131.690175 228.929965,131.845536 228.894033,132" id="Fill-17" fill="#DEB5A0"></path>
                <path d="M145.647548,168.058016 L133.618965,171 C133.618965,171 131.768833,121.466339 134.465933,94.496776 C134.465933,94.496776 140.131963,67.179276 146.801459,61.5095889 C155.41765,54.1860513 191,53 191,53 C191,53 148.692456,69.5103007 145.647548,168.058016" id="Fill-18" fill="#373737"></path>
                <path d="M189,63.5587201 L242.295853,153 C242.295853,153 247.028224,110.864638 231.956242,89.2871435 C209.361279,56.9367899 189,63.5587201 189,63.5587201" id="Fill-19" fill="#373737"></path>
                <path d="M124.439439,101 C121.234648,85.8560891 136.593512,42.9512823 137.083855,26.9713501 C137.437634,15.4018256 147.297028,11.2162431 154.409588,9.75259738 C163.449911,7.89345399 175.391349,9.14079287 179.711861,17.3400685 C185.052467,27.478804 197.918682,36.7754337 201.655671,39.5515233 C213.066746,48.0306896 229.830953,66.43411 233,81.4018723 L124.439439,101" id="Fill-20" fill="#EE509C"></path>
                <polyline id="Fill-21" fill="#E44E96" points="126 85 126.842836 80.1296101 184 75 126 85"></polyline>
                <path d="M242.984982,88.7569469 C243.129414,89.7328035 242.209689,90.5419172 241.188891,90.6901332 L120.280688,109.974312 C119.258974,110.123743 118.145043,109.613795 118,108.638545 L118.886747,86.4119144 C118.741399,85.4342355 119.662346,84.6266404 120.681923,84.4769058 L232.209046,67.0259891 C233.232286,66.875647 234.345606,67.3849877 234.491871,68.3617555 L242.984982,88.7569469" id="Fill-22" fill="#D84C96"></path>
                <path d="M208,141.784273 L166,141 C166,141 173.130511,156 186.71861,156 C200.142113,156 207.402877,144.794681 208,141.784273" id="Fill-23" fill="#FFFFFF"></path>
                <path d="M202.221501,123.886502 C203.073728,126.824932 206.123882,128.587636 209.040548,127.820501 C211.95536,127.055131 213.627986,124.052528 212.779158,121.114981 C211.927859,118.175668 208.876159,116.413258 205.958257,117.178922 C203.044064,117.944585 201.371129,120.947777 202.221501,123.886502" id="Fill-24" fill="#000000"></path>
                <path d="M157.221815,123.886502 C158.072264,126.824932 161.123314,128.587636 164.039626,127.820501 C166.956248,127.055131 168.628716,124.052528 167.778576,121.114981 C166.927199,118.175668 163.874605,116.413258 160.95891,117.178922 C158.043524,117.944585 156.370747,120.947777 157.221815,123.886502" id="Fill-25" fill="#000000"></path>
                <path d="M85.3296209,337 L281.670379,337 C285.231654,337 288.33481,334.986023 290,332 L77,332 C78.665496,334.986023 81.7677347,337 85.3296209,337" id="Fill-26" fill="#BFBEBE"></path>
                <path d="M195.608366,328 L172.391023,328 C170.982021,328 169.738748,327.603066 169,327 L199,327 C198.260641,327.603066 197.017674,328 195.608366,328" id="Fill-27" fill="#F7F0F0"></path>
                <path d="M198.46107,327 C197.723645,328.12381 196.483929,328.863492 195.078307,328.863492 L171.921693,328.863492 C170.516376,328.863492 169.276355,328.12381 168.53954,327 L76,327 C76,328.822222 76.4760632,330.526984 77.2949162,332 L289.705084,332 C290.523937,330.526984 291,328.822222 291,327 L198.46107,327" id="Fill-28" fill="#CECCCC"></path>
                <path d="M172.391023,328 L195.608672,328 C197.017674,328 198.260641,327.603066 199,327 L169,327 C169.738748,327.603066 170.982021,328 172.391023,328" id="Fill-29" fill="#A0A0A0"></path>
                <path d="M274,323.051269 C274,325.232821 272.233465,327 270.054211,327 L97.9454848,327 C95.7662307,327 94,325.232821 94,323.051269 L94,210.950255 C94,208.768703 95.7662307,207 97.9454848,207 L270.054211,207 C272.233465,207 274,208.768703 274,210.950255 L274,323.051269" id="Fill-30" fill="#141313"></path>
                <polyline id="Fill-31" fill="#5B5A5A" points="242 327 208.430528 327 143 207 155.510782 207 242 327"></polyline>
                <path d="M269.053373,327 L252.161175,327 L167,207 L230.621249,207 L273,286.52733 L273,323.051269 C273,325.232821 271.23309,327 269.053373,327 M182.980735,210.009384 C182.279938,210.009384 181.712176,210.577624 181.712176,211.278707 C181.712176,211.979789 182.279938,212.548638 182.980735,212.548638 C183.680923,212.548638 184.249293,211.979789 184.249293,211.278707 C184.249293,210.577624 183.680923,210.009384 182.980735,210.009384" id="Fill-32" fill="#434242"></path>
                <path d="M185,211.49964 C185,212.327934 184.327934,213 183.5,213 C182.671346,213 182,212.327934 182,211.49964 C182,210.671346 182.671346,210 183.5,210 C184.327934,210 185,210.671346 185,211.49964" id="Fill-33" fill="#000000"></path>
                <path d="M183.499759,212 C183.222865,212 183,211.775579 183,211.499517 C183,211.223456 183.222865,211 183.499759,211 C183.77617,211 184,211.223456 184,211.499517 C184,211.775579 183.77617,212 183.499759,212" id="Fill-34" fill="#333333"></path>
                <polygon id="Fill-35" fill="#373737" points="102 318 262 318 262 217 102 217"></polygon>
                <polygon id="Fill-36" fill="#C7C9C9" points="102 223 262 223 262 215 102 215"></polygon>
                <path d="M109,220.000164 C109,221.105017 108.104433,222 107,222 C105.895567,222 105,221.105017 105,220.000164 C105,218.895312 105.895567,218 107,218 C108.104433,218 109,218.895312 109,220.000164" id="Fill-37" fill="#6B6BD6"></path>
                <path d="M115,220.000164 C115,221.105017 114.104433,222 113,222 C111.895567,222 111,221.105017 111,220.000164 C111,218.895312 111.895567,218 113,218 C114.104433,218 115,218.895312 115,220.000164" id="Fill-38" fill="#78C2C5"></path>
                <path d="M122,220.000164 C122,221.105017 121.104762,222 120.000328,222 C118.895567,222 118,221.105017 118,220.000164 C118,218.895312 118.895567,218 120.000328,218 C121.104762,218 122,218.895312 122,220.000164" id="Fill-39" fill="#FCED7E"></path>
                <path d="M137,231.500169 C137,232.880411 136.051194,234 134.880505,234 L123.119495,234 C121.948806,234 121,232.880411 121,231.500169 C121,230.119589 121.948806,229 123.119495,229 L134.880505,229 C136.051194,229 137,230.119589 137,231.500169" id="Fill-40" fill="#FFFFFF"></path>
                <path d="M143,236.500169 C143,237.880935 142.050925,239 140.880256,239 L129.119457,239 C127.948789,239 127,237.880935 127,236.500169 C127,235.119403 127.948789,234 129.119457,234 L140.880256,234 C142.050925,234 143,235.119403 143,236.500169" id="Fill-41" fill="#6DB5B5"></path>
                <path d="M186,243.500169 C186,244.880935 184.990303,246 183.745912,246 L139.253479,246 C138.008784,246 137,244.880935 137,243.500169 C137,242.119403 138.008784,241 139.253479,241 L183.745912,241 C184.990303,241 186,242.119403 186,243.500169" id="Fill-42" fill="#FFFFFF"></path>
                <path d="M209,249.499831 C209,250.880935 207.994591,252 206.754739,252 L139.245261,252 C138.005105,252 137,250.880935 137,249.499831 C137,248.119403 138.005105,247 139.245261,247 L206.754739,247 C207.994591,247 209,248.119403 209,249.499831" id="Fill-43" fill="#6666CC"></path>
                <path d="M227,255.5 C227,256.880673 225.987669,258 224.738976,258 L139.260719,258 C138.012025,258 137,256.880673 137,255.5 C137,254.119665 138.012025,253 139.260719,253 L224.738976,253 C225.987669,253 227,254.119665 227,255.5" id="Fill-44" fill="#C7C9C9"></path>
                <path d="M158,262.5 C158,263.881197 156.976884,265 155.714506,265 L128.285494,265 C127.023116,265 126,263.881197 126,262.5 C126,261.119141 127.023116,260 128.285494,260 L155.714506,260 C156.976884,260 158,261.119141 158,262.5" id="Fill-45" fill="#6DB5B5"></path>
                <path d="M153,268.500169 C153,269.880935 152.051194,271 150.880505,271 L139.119495,271 C137.948806,271 137,269.880935 137,268.500169 C137,267.119403 137.948806,266 139.119495,266 L150.880505,266 C152.051194,266 153,267.119403 153,268.500169" id="Fill-46" fill="#C7C9C9"></path>
                <path d="M172,268.500169 C172,269.880935 171.050656,271 169.880008,271 L158.119706,271 C156.949058,271 156,269.880935 156,268.500169 C156,267.119403 156.949058,266 158.119706,266 L169.880008,266 C171.050656,266 172,267.119403 172,268.500169" id="Fill-47" fill="#FFFFFF"></path>
                <path d="M166,273.5 C166,274.880859 164.978363,276 163.71819,276 L139.281501,276 C138.021329,276 137,274.880859 137,273.5 C137,272.119141 138.021329,271 139.281501,271 L163.71819,271 C164.978363,271 166,272.119141 166,273.5" id="Fill-48" fill="#6666CC"></path>
                <path d="M178,279.500338 C178,280.880673 176.973071,282 175.705988,282 L139.294012,282 C138.026929,282 137,280.880673 137,279.500338 C137,278.119665 138.026929,277 139.294012,277 L175.705988,277 C176.973071,277 178,278.119665 178,279.500338" id="Fill-49" fill="#FFFFFF"></path>
                <path d="M153,286.5 C153,287.880335 152.051194,289 150.880505,289 L139.119495,289 C137.948806,289 137,287.880335 137,286.5 C137,285.119327 137.948806,284 139.119495,284 L150.880505,284 C152.051194,284 153,285.119327 153,286.5" id="Fill-50" fill="#C7C9C9"></path>
                <path d="M153,292.500169 C153,293.880935 152.051194,295 150.880505,295 L139.119495,295 C137.948806,295 137,293.880935 137,292.500169 C137,291.119403 137.948806,290 139.119495,290 L150.880505,290 C152.051194,290 153,291.119403 153,292.500169" id="Fill-51" fill="#6DB5B5"></path>
                <path d="M212,292.500169 C212,293.880935 210.978129,295 209.716978,295 L157.283022,295 C156.02218,295 155,293.880935 155,292.500169 C155,291.119403 156.02218,290 157.283022,290 L209.716978,290 C210.978129,290 212,291.119403 212,292.500169" id="Fill-52" fill="#6666CC"></path>
                <path d="M233,292.500169 C233,293.880935 231.986858,295 230.737469,295 L215.263142,295 C214.013142,295 213,293.880935 213,292.500169 C213,291.119403 214.013142,290 215.263142,290 L230.737469,290 C231.986858,290 233,291.119403 233,292.500169" id="Fill-53" fill="#FFFFFF"></path>
                <path d="M143,298.499662 C143,299.880335 142.050925,301 140.880256,301 L129.119457,301 C127.948789,301 127,299.880335 127,298.499662 C127,297.119327 127.948789,296 129.119457,296 L140.880256,296 C142.050925,296 143,297.119327 143,298.499662" id="Fill-54" fill="#C7C9C9"></path>
                <path d="M153,305.500507 C153,306.882134 152.051194,308 150.880505,308 L139.119495,308 C137.948806,308 137,306.882134 137,305.500507 C137,304.119554 137.948806,303 139.119495,303 L150.880505,303 C152.051194,303 153,304.119554 153,305.500507" id="Fill-55" fill="#6666CC"></path>
                <path d="M186,310.5 C186,311.881757 184.990303,313 183.745912,313 L139.253479,313 C138.008784,313 137,311.881757 137,310.5 C137,309.118243 138.008784,308 139.253479,308 L183.745912,308 C184.990303,308 186,309.118243 186,310.5" id="Fill-56" fill="#C7C9C9"></path>
                <polyline id="Fill-57" fill="#EFC3AB" points="288 282.279336 274 295 274 281 288 282.279336"></polyline>
                <polyline id="Fill-58" fill="#D0D0D0" points="283 281.896379 275 281.441536 275.831739 281 283 281.896379"></polyline>
                <polyline id="Fill-59" fill="#DBB49E" points="282.234428 287 273 283.906878 275.255105 282 282.312525 282.6391 286 283.373529 282.239574 286.995096 282.234126 287"></polyline>
                <path d="M268.089644,260.776468 C264.193597,261.207257 250.72518,262.213216 250.72518,262.213216 C248.514414,262.473988 246.761192,264.474414 247.026641,266.640144 C247.284874,268.741638 249.189307,270.260006 251.324017,270.106784 C251.387748,270.102659 262.736488,269.306201 262.80052,269.298245 C260.589153,269.559901 259.018108,271.527326 259.282354,273.69335 C259.550808,275.859079 261.556852,277.401904 263.76852,277.1429 C261.556852,277.401904 260.028495,279.362847 260.295747,281.528871 C260.560293,283.694895 262.61654,285.232415 264.826705,284.971055 L266.832147,284.728847 C267.133069,284.700559 270.266741,284.36907 274.279729,283.945353 C278.614984,283.754416 282.192372,283.659241 284.415464,283.848706 L284.398629,283.861376 C293.118138,284.311907 293.067935,262.866471 285.028129,260.818309 C280.332431,259.565133 273.97009,259.914302 268.089644,260.776468" id="Fill-60" fill="#F2C5AD"></path>
                <path d="M123.561655,323.589003 C123.905545,319.42857 124.071486,317.096899 124.071486,317.096899 C124.283607,314.734748 126.4196,312.805405 128.803119,313.015712 C131.185406,313.22602 132.946722,315.316904 132.731522,317.679055 C132.946722,315.316904 135.051312,313.57958 137.435447,313.78684 C139.818966,314.003244 141.576588,316.084984 141.365082,318.447135 C141.576588,316.084984 143.67656,314.393379 146.059463,314.606735 C148.442982,314.817043 150.196293,316.953646 149.982325,319.315796 L149.783442,321.455448 C149.762814,321.775481 149.501742,325.122115 149.168628,329.404465 C149.102128,334.025136 149.408766,335.594823 149.409381,335.603967 C150.189828,344.866645 126.673899,345.525 124.163538,337.036497 C122.636202,332.083601 122.809224,329.873847 123.561655,323.589003" id="Fill-61" fill="#F2C5AD"></path>
            </g>
        </g>
    </g>
</svg>